<svg width="49" height="49" viewBox="0 0 49 49" fill="none" xmlns="http://www.w3.org/2000/svg">
<path d="M24.5 4.54189L45.2846 15.5484V37.5615L24.5 48.5681L3.71539 37.5615V15.5484L24.5 4.54189Z" fill="#009ED8"/>
<path d="M14.8555 32.2557V12.6505C17.092 10.1 19.1374 11.5878 19.8806 12.6505V21.7751L42.9834 0.66739C46.1476 0.0737362 46.6391 2.28894 46.4892 3.47075L14.8555 32.2557Z" fill="#0ACF83"/>
<path d="M14.8555 42.3292V36.1218L20.4253 31.2878L23.7193 34.1992L14.8555 42.3292Z" fill="white"/>
<path d="M36.9584 41.982L22.7012 28.9257L36.1765 16.456C40.0095 16.0605 40.0095 18.4153 39.5304 19.6421L29.4322 28.9257L41.2824 39.6903L36.9584 41.982Z" fill="white"/>
</svg>
